<svg width="9" height="18" viewBox="0 0 9 18" fill="none" xmlns="http://www.w3.org/2000/svg">
<path d="M8.27387 0.579864H5.77808C2.59941 0.548058 2.19342 2.51532 2.19342 4.64441V6.19259H0.790239C0.726818 6.18411 0.662297 6.19038 0.601689 6.21089C0.541081 6.2314 0.486016 6.2656 0.440772 6.31085C0.395529 6.35609 0.361323 6.41115 0.340813 6.47176C0.320303 6.53237 0.314041 6.59689 0.322512 6.66031V9.46667C0.314041 9.5301 0.320303 9.59461 0.340813 9.65522C0.361323 9.71583 0.395529 9.7709 0.440772 9.81614C0.486016 9.86139 0.541081 9.89559 0.601689 9.9161C0.662297 9.93661 0.726818 9.94287 0.790239 9.9344H2.19342V16.9503C2.18562 17.0138 2.19246 17.0783 2.21339 17.1388C2.23432 17.1993 2.26881 17.2542 2.3142 17.2993C2.3596 17.3445 2.41472 17.3786 2.47533 17.3992C2.53595 17.4198 2.60047 17.4262 2.66395 17.418H5.52176C5.79772 17.4498 6.0213 17.2263 5.93336 16.9503L5.93523 9.9344H8.27387C8.33729 9.94287 8.40181 9.93661 8.46242 9.9161C8.52303 9.89559 8.57809 9.86139 8.62334 9.81614C8.66858 9.7709 8.70278 9.71583 8.72329 9.65522C8.7438 9.59461 8.75007 9.5301 8.7416 9.46667V6.66031C8.75007 6.59689 8.7438 6.53237 8.72329 6.47176C8.70278 6.41115 8.66858 6.35609 8.62334 6.31085C8.57809 6.2656 8.52303 6.2314 8.46242 6.21089C8.40181 6.19038 8.33729 6.18411 8.27387 6.19259H5.93243L5.93523 4.78941C6.02597 4.19165 6.02597 4.28894 6.5807 4.32168H8.25422C8.38425 4.29268 8.5227 4.30858 8.61999 4.2141C8.71727 4.11962 8.7734 3.99053 8.74066 3.85395V1.04759C8.7493 0.98422 8.74318 0.919712 8.72279 0.859094C8.7024 0.798476 8.66828 0.743386 8.62311 0.698117C8.57793 0.652848 8.52291 0.618624 8.46233 0.598112C8.40175 0.577601 8.33726 0.571355 8.27387 0.579864ZM7.7734 3.33384L6.60034 3.28894C5.14758 3.28894 5.02597 4.07753 5.02597 4.88482L5.02223 6.65844C5.02211 6.72412 5.03494 6.78918 5.05999 6.84989C5.08504 6.91061 5.12181 6.96578 5.16821 7.01227C5.21461 7.05875 5.26972 7.09563 5.33039 7.1208C5.39105 7.14596 5.45609 7.15891 5.52176 7.15891H7.80614V8.96621H5.52363C5.39106 8.96621 5.26391 9.0188 5.17008 9.11246C5.07625 9.20611 5.02341 9.33317 5.02317 9.46574L5.02223 16.4826H3.12887V9.46667C3.12887 9.19071 2.94085 8.96714 2.66395 8.96714H1.25797V7.15985H2.66395C2.72959 7.15995 2.7946 7.14711 2.85528 7.12207C2.91595 7.09703 2.97109 7.06028 3.01755 7.01391C3.1111 6.91943 3.12794 6.79221 3.12794 6.65938V4.64347C3.12794 2.54619 3.5517 1.54712 5.77714 1.54712H7.77247V3.33384H7.7734Z" fill="white"/>
</svg>
