<svg width="46" height="54" viewBox="0 0 46 54" fill="none" xmlns="http://www.w3.org/2000/svg">
<path d="M20.8969 52.3213C11.0195 44.6674 4.91047 35.269 2.0781 23.3699C0.93898 18.5839 0.248535 12.6723 0.248535 7.70739C0.248535 4.99775 0.436771 4.69942 2.74384 3.75521C10.1562 0.721804 21.1572 -0.346587 31.8602 0.927481C37.2773 1.57247 44.1316 3.58864 45.2107 4.85483C45.6488 5.3688 45.7505 5.66088 45.4532 5.55038C45.3566 5.51469 45.1326 5.60035 44.9554 5.74119C44.6342 5.99654 44.6339 6.0004 44.8374 7.22227C44.9496 7.89596 45.0863 9.14742 45.1411 10.0033C45.196 10.859 45.2882 11.5592 45.3461 11.5592C45.5324 11.5592 45.6249 10.5296 45.6579 8.08543L45.6901 5.69717L45.7392 7.65117C45.8316 11.3209 45.3054 16.7773 44.4335 21.1931C42.8071 29.4303 39.6479 36.5489 34.8658 42.7509C31.8494 46.6627 24.2228 53.6787 22.9866 53.6787C22.7785 53.6787 21.9767 53.1579 20.897 52.3213H20.8969ZM24.2866 52.501C26.1197 51.2812 27.9121 49.7296 29.9803 47.5722C32.8164 44.6137 34.4594 42.6393 35.0277 41.5074C35.2012 41.1615 35.1931 41.0949 34.9483 40.8668C34.6831 40.6194 34.6186 40.6696 32.7406 42.5794C30.3927 44.9674 28.7691 46.317 28.7691 45.8808C28.7691 45.6225 26.9501 44.5606 25.8647 44.1852C23.9254 43.5145 21.8203 43.5757 20.1003 44.3526L19.3694 44.6827L19.1355 43.8615C18.475 41.5422 18.1039 38.4606 18.4566 38.2231C18.5416 38.1659 18.7872 37.7124 19.0022 37.2156C19.2816 36.5701 19.6022 36.1282 20.1244 35.6685C20.5667 35.2793 20.9067 34.8413 20.985 34.5604C21.1179 34.0827 21.7397 33.4842 22.0047 33.5788C22.2335 33.6606 21.7294 34.6953 21.09 35.4565C20.7828 35.8221 20.4473 36.3306 20.3444 36.5868C20.1816 36.9916 20.1867 37.0831 20.3835 37.2858C20.5917 37.5004 20.6183 37.4968 20.7141 37.2401C20.8086 36.9867 20.8256 36.9941 20.9006 37.323C21.0085 37.7966 21.4267 37.8515 22.2097 37.4946C22.7557 37.2459 22.8372 37.1467 22.9166 36.6357C22.9659 36.3179 23.1063 35.9724 23.2287 35.8677C23.3782 35.7398 23.4395 35.4848 23.4156 35.0891C23.3784 34.4722 23.534 33.7045 23.6962 33.7045C23.8654 33.7045 24.2447 34.4863 24.3465 35.0446C24.4009 35.3438 24.5693 35.751 24.7207 35.9492C24.9823 36.2919 25.0682 36.3099 26.4443 36.3099H27.8928L28.2925 35.77C28.6025 35.3511 28.6972 35.0599 28.7144 34.4723C28.7444 33.4451 29.2574 32.5759 30.2771 31.8235L31.0778 31.2328L31.3063 31.5448C31.4319 31.7164 31.6691 32.2414 31.8333 32.7114C32.0662 33.3785 32.1005 33.6508 31.9888 33.9531C31.9103 34.1658 31.8222 34.7344 31.7931 35.2164C31.7638 35.6984 31.698 36.3274 31.6465 36.6145C31.565 37.0688 31.6024 37.1763 31.9362 37.4467C32.42 37.8387 32.5406 37.8363 32.6986 37.4315C32.7906 37.1956 32.828 37.1733 32.8346 37.3506C32.8496 37.764 33.1278 37.8044 33.4975 37.4467C33.7975 37.1565 33.8372 37.02 33.7656 36.527C33.7194 36.2085 33.6271 35.5247 33.5605 35.0071C33.4939 34.4896 33.3924 33.9499 33.3352 33.8077C33.2778 33.6654 33.3109 32.9486 33.4087 32.2146C33.5783 30.9424 33.5725 30.8518 33.2852 30.2718C32.8733 29.4397 32.9005 29.3103 33.4283 29.5915C34.0374 29.916 35.3942 30.027 35.9342 29.7965C36.393 29.6008 36.9178 29.0147 36.9178 28.6982C36.9178 28.556 36.7478 28.5276 36.2505 28.5865C35.6965 28.6519 35.5078 28.6078 35.1402 28.3263C34.8007 28.0672 34.4604 27.8094 34.119 27.5529C33.569 27.1399 33.5447 27.0898 33.6194 26.5226C33.6642 26.1838 33.598 25.4725 33.4661 24.8754C33.3386 24.2973 33.2719 23.6213 33.3183 23.3729C33.3644 23.1245 33.4649 22.6088 33.5415 22.2267C33.7334 21.2675 33.5042 20.2864 32.8491 19.2644C32.5565 18.8078 32.2371 18.1739 32.1393 17.8555C32.0415 17.5369 31.839 17.0966 31.6893 16.8767C31.4274 16.492 31.4261 16.449 31.6549 15.7391C32.1062 14.3393 31.6411 13.201 30.3534 12.5544C29.728 12.2403 29.4478 12.2103 26.2401 12.1145C23.1566 12.0224 21.5528 11.8675 21.1714 11.6246C20.9101 11.4582 21.0466 10.9717 21.4011 10.8052C21.7029 10.6636 21.9563 10.7036 22.9817 11.055C24.2887 11.503 25.6638 11.5952 26.4243 11.286C26.9296 11.0806 26.816 10.8978 26.1109 10.7818C25.8044 10.7313 25.5148 10.6249 25.4672 10.5457C25.3476 10.3464 25.6471 10.3644 26.7224 10.6214C27.5916 10.829 28.3475 10.7949 28.3475 10.548C28.3475 10.3889 27.1607 9.88655 26.1496 9.61767C25.0078 9.31399 22.9687 9.3186 22.0419 9.62689C21.1886 9.91094 20.2676 10.678 20.1372 11.2134C20.0194 11.6972 20.4128 12.1637 21.1504 12.4143C21.4464 12.515 23.3835 12.6719 25.6078 12.7755C29.7881 12.9704 30.1699 13.0447 30.6572 13.7615C30.9778 14.2333 30.9315 14.951 30.5509 15.4068C30.2318 15.789 30.2097 15.7935 29.4619 15.6229C29.0422 15.5271 27.8746 15.1726 26.8671 14.835C25.4471 14.3592 24.9418 14.2479 24.6191 14.3395C24.3903 14.4043 23.7288 14.8795 23.1492 15.3954C22.5659 15.9144 21.4817 16.6662 20.7207 17.0793C18.7842 18.1306 18.1904 18.9482 17.951 20.8936C17.8164 21.9877 17.5827 22.553 16.606 24.1485C15.9392 25.2378 15.5624 26.3409 15.5624 27.2043C15.5624 27.6493 15.372 28.5168 15.0707 29.4446C14.6558 30.7222 14.5789 31.1598 14.5789 32.2459C14.5789 33.3348 14.5249 33.6408 14.2282 34.2339C14.0352 34.6194 13.8414 35.2605 13.7976 35.6585C13.6661 36.8515 13.6345 36.9277 12.8987 37.8234C12.5092 38.2975 12.1905 38.8022 12.1905 38.945C12.1905 39.0878 12.1296 39.2047 12.0552 39.2047C11.8196 39.2047 11.207 40.2683 11.207 40.677C11.207 41.2235 11.4765 41.3392 11.7873 40.9261L12.0479 40.5796L11.9611 41.0501C11.8858 41.4588 11.9127 41.5205 12.167 41.5205C12.369 41.5205 12.5777 41.7335 12.8408 42.208C14.3276 44.8903 17.6085 48.83 20.0583 50.875C21.295 51.9074 22.9916 53.0999 23.2238 53.0999C23.3135 53.0999 23.7915 52.8304 24.2865 52.501H24.2866ZM14.7149 39.1443C14.7918 38.9361 14.8477 38.4447 14.8392 38.0527C14.8264 37.466 14.898 37.2419 15.2441 36.7886C15.7789 36.0874 16.0516 35.5349 16.2638 34.7226C16.4451 34.0284 17.9098 31.0991 18.0755 31.0991C18.3688 31.0991 18.5129 31.5357 18.5129 32.4236C18.5129 33.1559 18.5673 33.432 18.7307 33.5263C19.088 33.7323 18.5777 35.2073 17.9222 35.8622C17.0719 36.7119 16.6427 37.0914 16.2341 37.3557C15.9557 37.5358 15.8226 37.7681 15.7574 38.1879C15.7077 38.5084 15.6167 38.7704 15.5552 38.7704C15.4938 38.7704 15.2482 38.9398 15.0093 39.1467L14.5752 39.5231L14.7149 39.1443ZM24.4137 10.8357C24.2397 10.7197 24.2519 10.6966 24.484 10.7033C24.6384 10.7078 24.8913 10.7673 25.0459 10.8357C25.3032 10.9496 25.2973 10.9606 24.9757 10.968C24.7825 10.9723 24.5295 10.9127 24.4137 10.8357ZM4.51532 29.2537C4.25238 28.3979 3.75605 26.5254 3.41223 25.0925C2.23428 20.1829 1.84001 16.8742 1.43428 8.49931C1.36545 7.07548 1.28692 6.56984 1.08016 6.21946C0.767655 5.69003 0.533242 5.63812 0.519566 6.09514C0.340153 12.0372 1.29075 19.5961 2.91149 25.1129C3.61517 27.5083 4.76444 30.8097 4.89459 30.8097C4.949 30.8097 4.77841 30.1095 4.51532 29.2537ZM8.88887 20.7543C11.6223 20.0128 14.1727 17.8449 15.3645 15.2501C15.5108 14.9317 15.6355 14.6385 15.6417 14.5987C15.6477 14.559 15.7723 14.1356 15.9182 13.6579C16.1152 13.0141 16.1852 12.3403 16.1892 11.0525C16.1954 9.10489 16.0926 8.52786 15.7354 8.50199C15.6016 8.49232 15.8541 8.42971 16.2964 8.36294C17.8214 8.13272 18.3723 7.56581 18.3723 6.22705C18.3723 5.73717 18.2875 5.40464 18.1026 5.17041C17.85 4.85037 17.8477 4.8117 18.0674 4.56022C18.2204 4.38532 18.3022 4.0406 18.3022 3.57124C18.3022 2.94068 18.245 2.79835 17.8433 2.42864C17.3595 1.98323 16.732 1.894 15.5273 2.09923L15.0004 2.18891V4.11213C15.0004 5.16996 14.9621 6.13841 14.9151 6.26423C14.8683 6.39019 14.6786 6.49325 14.4936 6.49325H14.1574V4.39454C14.1574 2.31398 14.1548 2.29584 13.8413 2.29762C13.0224 2.30283 12.9624 2.38343 12.4668 4.14321L11.9932 5.82477L11.4993 4.27661L11.0055 2.72861L10.5092 2.82081C10.2362 2.87137 9.96535 2.94053 9.90741 2.97458C9.84947 3.00879 9.80211 3.93753 9.80211 5.03879V7.04083L9.43049 7.13691C9.22608 7.1897 9.01417 7.18048 8.95932 7.11638C8.90461 7.05228 8.66373 6.22675 8.42446 5.28194C8.1849 4.33699 7.96093 3.53495 7.92652 3.49956C7.89196 3.46402 7.64004 3.47829 7.36666 3.53109L6.8696 3.62716L6.50004 5.2412C5.83195 8.16009 5.96239 7.88912 5.12885 8.08974C4.72415 8.1873 4.18753 8.35297 3.93635 8.45826L3.47973 8.64952V6.68748C3.47973 4.95194 3.45385 4.73556 3.2559 4.81393C3.13281 4.86256 2.87678 4.94257 2.68678 4.99165L2.34134 5.08088L2.39531 8.35624C2.45487 11.9691 2.63487 13.277 3.53502 16.6419C4.22253 19.2107 4.84238 20.8109 5.21474 20.9782C5.63415 21.1667 7.87166 21.0303 8.88887 20.7543ZM7.18784 6.84319C7.2349 6.71737 7.27313 6.4763 7.27313 6.3078C7.27313 5.91221 7.48828 6.14704 7.60887 6.67409C7.68651 7.01302 7.65549 7.07221 7.40122 7.07221C7.18651 7.07221 7.12651 7.00782 7.18798 6.84319H7.18784ZM16.1244 6.36536C16.1244 5.7626 16.1692 5.64645 16.4282 5.5767C16.9163 5.44524 17.2483 5.71873 17.2483 6.25233C17.2483 6.83159 17.0339 7.07221 16.5177 7.07221C16.1407 7.07221 16.1244 7.04306 16.1244 6.36536ZM11.0198 6.83084C10.9683 6.7779 10.928 6.63141 10.9304 6.5053C10.9339 6.31702 10.9612 6.32342 11.0837 6.54025C11.2349 6.80824 11.1911 7.00752 11.0198 6.83099V6.83084ZM12.9152 6.34855C12.9152 6.14942 12.9471 6.06807 12.9861 6.16756C13.0251 6.2672 13.0251 6.4299 12.9861 6.52939C12.9471 6.62903 12.9152 6.54754 12.9152 6.34855ZM16.1244 3.81558C16.1244 3.16762 16.127 3.1642 16.6161 3.1642C17.1097 3.1642 17.1888 3.27901 17.1148 3.88786C17.0807 4.16924 16.7022 4.46682 16.3785 4.46682C16.1711 4.46682 16.1244 4.3474 16.1244 3.81544V3.81558ZM43.2321 16.9231C43.627 15.9102 44.2267 12.2333 44.2189 10.8726C44.216 10.3543 44.1116 9.82052 43.9426 9.46048C43.7179 8.98086 43.6704 8.55627 43.6664 6.98789L43.6617 5.09441L43.1741 4.94019L42.6866 4.78612L42.6473 6.54426C42.6101 8.20916 42.593 8.30018 42.327 8.25943C41.6935 8.16232 41.6946 8.16648 41.6946 6.22645V4.35826L41.2557 4.26784C41.0142 4.21816 40.7612 4.17742 40.6937 4.17742C40.6261 4.17742 40.5683 4.81244 40.5654 5.58875L40.5599 6.99979L39.9198 5.40776C39.5677 4.53196 39.2381 3.7735 39.1876 3.72219C39.137 3.67088 38.8901 3.58433 38.639 3.52975L38.1823 3.4307V5.32388C38.1823 7.20279 38.1799 7.21706 37.8592 7.21706C37.2703 7.21706 37.1989 6.98031 37.1989 5.03388C37.1989 3.25224 37.1895 3.19543 36.8827 3.11066C36.0602 2.88357 36.0749 2.84951 36.0749 4.99046V6.96127L35.7587 6.87397C35.5849 6.82594 35.3952 6.78578 35.3372 6.78474C35.2793 6.78355 35.232 5.87905 35.232 4.77452V2.76623L34.7928 2.67566C34.5514 2.62599 34.2984 2.58524 34.2309 2.58524C34.1633 2.58524 34.108 3.10635 34.108 3.74316C34.108 4.99239 34.1156 4.98228 33.288 4.8117L32.8541 4.72247L32.8137 3.54522L32.7733 2.36811L32.2463 2.3232L31.7194 2.27829V8.48801L32.2155 8.5475C32.4883 8.58036 32.7412 8.57664 32.7775 8.53932C32.8137 8.50199 32.8434 7.89596 32.8434 7.19282C32.8434 5.81094 32.829 5.83176 33.6689 6.00471L34.108 6.09514L34.1168 7.19892C34.1267 8.4248 34.3224 11.1816 34.4315 11.6316C34.9749 13.8735 36.7193 15.9461 38.7634 16.7784C39.8461 17.2192 40.4811 17.3281 41.8643 17.3098C43.0392 17.2943 43.0935 17.279 43.2321 16.9231ZM39.3846 7.47018C39.2379 6.97227 39.2037 6.64509 39.3055 6.70994C39.4945 6.83025 39.7301 7.65117 39.5755 7.65117C39.4999 7.65117 39.4139 7.56982 39.3846 7.47018ZM30.2783 8.00334C30.7305 7.69817 30.8765 7.22524 30.8765 6.06643C30.8765 4.96666 30.8172 4.90718 29.7174 4.90301C29.196 4.90108 29.1906 4.90718 29.1906 5.48004C29.1906 5.96248 29.2374 6.059 29.4715 6.059C29.6874 6.059 29.7525 6.15552 29.7525 6.47541C29.7525 7.08515 29.4257 7.31418 28.9828 7.01525C28.5393 6.71574 28.4178 6.25977 28.4178 4.89453C28.4178 3.23767 29.0428 2.46746 29.5834 3.45792C29.7881 3.83299 29.8941 3.89069 30.3146 3.85604C30.7558 3.81975 30.8035 3.77454 30.7796 3.41583C30.7168 2.47445 29.6118 1.6849 28.6902 1.92315C28.1382 2.06592 27.5654 2.76222 27.3818 3.51354C27.0385 4.91818 27.2954 6.86475 27.9347 7.70188C28.4418 8.36606 29.533 8.50645 30.2783 8.00334ZM21.7179 7.72404C22.3076 7.2129 22.6076 6.33234 22.6292 5.04861C22.6648 2.92863 22.0109 1.71673 20.831 1.71673C19.5869 1.71673 18.8666 2.91123 18.8666 4.9735C18.8666 6.31494 19.1851 7.34704 19.7372 7.79439C20.2614 8.21942 21.1844 8.18656 21.7181 7.72404H21.7179ZM20.3214 6.68852C20.195 6.53162 20.1148 5.972 20.0888 5.06006C20.0448 3.5241 20.2075 2.97801 20.732 2.90037C21.2473 2.82423 21.5073 3.67772 21.4361 5.21145C21.3761 6.5053 21.21 6.92751 20.7608 6.92751C20.6251 6.92751 20.4275 6.81999 20.3214 6.68852ZM24.384 6.74652C24.4384 5.05411 24.6673 5.06348 25.2643 6.78266L25.7166 8.08543H26.3296C26.6668 8.08543 26.9404 8.06907 26.9378 8.04914C26.9351 8.02936 26.725 7.404 26.4709 6.65967L26.0088 5.30633L26.4054 4.89781C26.7356 4.55769 26.8021 4.36688 26.8021 3.76115C26.8021 2.26059 26.3184 1.83302 24.5191 1.74305L23.2897 1.68133V4.79891C23.2897 8.12068 23.2845 8.09718 23.9922 8.04096C24.3345 8.01375 24.3444 7.98118 24.384 6.74652ZM24.4137 3.59846C24.4137 2.87613 24.4147 2.87479 24.8773 2.87479C25.4357 2.87479 25.6781 3.09386 25.6781 3.59846C25.6781 4.10306 25.4357 4.32212 24.8773 4.32212C24.4145 4.32212 24.4137 4.32063 24.4137 3.59846ZM1.51281 5.72215C1.51281 5.62593 1.6731 5.30425 1.86913 5.00711C2.15472 4.5742 2.18149 4.46682 2.00399 4.46682C1.7606 4.46682 0.669861 5.00667 0.669861 5.12713C0.669861 5.16847 0.806332 5.39244 0.973098 5.62504C1.26751 6.03505 1.51281 6.07922 1.51281 5.7223V5.72215ZM9.69211 2.37317C15.5741 1.39579 21.4029 1.08914 27.5749 1.43253C30.0966 1.57292 34.3734 2.00093 36.0749 2.28319C36.8127 2.40559 37.0528 2.3867 36.8902 2.2191C36.7698 2.09507 33.4717 1.46242 31.7196 1.2273C28.4328 0.786198 25.8313 0.667521 21.12 0.743368C16.2167 0.822188 14.1455 1.00704 10.9261 1.65233C8.54123 2.13031 6.53195 2.72994 7.31534 2.72994C7.44166 2.72994 8.51122 2.56933 9.69211 2.37317Z" fill="#040404"/>
</svg>
